# AST/ASF file generated using VICON BodyLanguage
# -----------------------------------------------
:version 1.10
:name VICON
:units
  mass 1.0
  length 0.45
  angle deg
:documentation
   .ast/.asf automatically generated from VICON data using
   VICON BodyBuilder and BodyLanguage model FoxedUp or BRILLIANT.MOD
:root
   order TX TY TZ RX RY RZ
   axis XYZ
   position 0 0 0  
   orientation 0 0 0 
:bonedata
  begin
     id 1 
     name lhipjoint
     direction 0.690799 -0.707083 0.151096 
     length 2.54797 
     axis 0 0 0  XYZ
  end
  begin
     id 2 
     name lfemur
     direction 0.34202 -0.939693 0  
     length 7.21646  
     axis 0 0 20  XYZ
    dof rx ry rz
    limits (-160.0 20.0)
           (-70.0 70.0)
           (-60.0 70.0)
  end
  begin
     id 3 
     name ltibia
     direction 0.34202 -0.939693 0   
     length 8.16759   
     axis 0 0 20   XYZ
    dof rx
    limits (-10.0 170.0)
  end
  begin
     id 4 
     name lfoot
     direction 0.0487203 -0.133858 0.989802   
     length 1.93375   
     axis -90 7.62852e-016 20   XYZ
    dof rx rz
    limits (-45.0 90.0)
           (-70.0 20.0)
  end
  begin
     id 5 
     name ltoes
     direction 1.53453e-011 -4.21783e-011 1   
     length 0.979747   
     axis -90 7.62852e-016 20   XYZ
    dof rx
    limits (-90.0 20.0)
  end
  begin
     id 6 
     name rhipjoint
     direction -0.694693 -0.703425 0.150315   
     length 2.56122  
     axis 0 0 0  XYZ 
  end
  begin
     id 7 
     name rfemur
     direction -0.34202 -0.939693 0   
     length 7.36786   
     axis 0 0 -20   XYZ
    dof rx ry rz
    limits (-160.0 20.0)
           (-70.0 70.0)
           (-70.0 60.0)
  end
  begin
     id 8 
     name rtibia
     direction -0.34202 -0.939693 0   
     length 8.07288   
     axis 0 0 -20   XYZ
    dof rx
    limits (-10.0 170.0)
 end
 begin
     id 9 
     name rfoot
     direction -0.0428397 -0.117701 0.992125   
     length 1.88295  
     axis -90 -7.62852e-016 -20   XYZ
    dof rx rz
    limits (-45.0 90.0)
           (-20.0 70.0)
  end
  begin
     id 10 
     name rtoes
     direction -1.53456e-011 -4.2187e-011 1   
     length 0.955578   
     axis -90 -7.62852e-016 -20   XYZ
    dof rx
    limits (-90.0 20.0)
  end
  begin
     id 11 
     name lowerback
     direction 0.0288145 0.999398 -0.0193241   
     length 1.92149   
     axis 0 0 0   XYZ
    dof rx ry rz
    limits (-20.0 45.0)
           (-30.0 30.0)
           (-30.0 30.0)
  end
  begin
     id 12 
     name upperback
     direction 0.0233784 0.998099 0.0570278   
     length 1.90435   
     axis 0 0 0   XYZ
    dof rx ry rz
    limits (-20.0 45.0)
           (-30.0 30.0)
           (-30.0 30.0)
  end
  begin
     id 13 
     name thorax
     direction 0.0096694 0.997833 0.0650817   
     length 1.9111   
     axis 0 0 0   XYZ
    dof rx ry rz
    limits (-20.0 45.0)
           (-30.0 30.0)
           (-30.0 30.0)
  end
  begin
     id 14 
     name lowerneck
     direction 0.00516803 0.999916 0.0118722   
     length 1.74664   
     axis 0 0 0   XYZ
    dof rx ry rz
    limits (-20.0 45.0)
           (-30.0 30.0)
           (-30.0 30.0)
  end
  begin
     id 15 
     name upperneck
     direction -0.0510851 0.996117 -0.071696   
     length 1.68498   
     axis 0 0 0   XYZ
    dof rx ry rz
    limits (-20.0 45.0)
           (-30.0 30.0)
           (-30.0 30.0)
  end
  begin
     id 16
     name head
     direction -0.019188 0.999436 -0.0275702  
     length 1.83483  
     axis 0 0 0   XYZ
    dof rx ry rz
    limits (-20.0 45.0)
           (-30.0 30.0)
           (-30.0 30.0)
  end
  begin
     id 17 
     name lclavicle
     direction 0.967006 0.248456 -0.0562957  
     length 3.39395  
     axis 0 0 0   XYZ
    dof ry rz
    limits (-20.0 10.0)
           (0.0 20.0)
  end
  begin
     id 18 
     name lhumerus
     direction 1 -4.48962e-011 -5.62711e-019   
     length 5.24318   
     axis 180 -30 -90   XYZ
    dof rx ry rz
    limits (-60.0 90.0)
           (-90.0 90.0)
           (-90.0 90.0)
  end
  begin
     id 19
     name lradius
     direction 1 -4.48966e-011 7.90625e-027   
     length 2.98999   
     axis 180 -30 -90   XYZ
    dof rx
    limits (-10.0 170.0)
  end
  begin
     id 20
     name lwrist
     direction 1 -4.48959e-011 1.61068e-026   
     length 1.49499   
     axis -9.31229e-015 90 90   XYZ
    dof ry
    limits (-180.0 0.0)
 end
  begin
     id 21 
     name lhand
     direction 1 -4.49017e-011 3.22136e-026   
     length 0.726745   
     axis -2.0555e-014 90 90   XYZ
    dof rx rz
    limits (-90.0 90.0)
           (-45.0 45.0)
  end
  begin
     id 22 
     name lfingers
     direction 1 -4.4898e-011 6.44272e-026   
     length 0.58592   
     axis -4.11101e-014 90 90   XYZ
    dof rx
    limits (0.0 90.0)
  end
  begin
     id 23
     name lthumb
     direction 0.707107 -6.34922e-011 0.707107   
     length 0.841268   
     axis -90 45 2.85299e-015   XYZ
    dof rx rz
    limits (-45.0 45.0)
           (-45.0 45.0)
  end
  begin
     id 24 
     name rclavicle
     direction -0.972232 0.230238 0.0419005   
     length 3.40416  
     axis 0 0 0   XYZ 
    dof ry rz
    limits (-10.0 20.0)
           (-20.0 0.0)
  end
  begin
     id 25 
     name rhumerus
     direction -1 -4.48976e-011 2.48487e-027  
     length 5.37045   
     axis 180 30 90   XYZ
    dof rx ry rz
    limits (-90.0 60.0)
           (-90.0 90.0)
           (-90.0 90.0)
  end
  begin
     id 26 
     name rradius
     direction -1 -4.48942e-011 7.87951e-027   
     length 2.92792   
     axis 180 30 90   XYZ
    dof rx
    limits (-10.0 170.0)
  end
  begin
     id 27 
     name rwrist
     direction -1 -4.48969e-011 1.61068e-026   
     length 1.46396   
     axis -9.31229e-015 -90 -90   XYZ
    dof ry
    limits (-180.0 0.0)
  end
  begin
     id 28
     name rhand
     direction -1 -4.49043e-011 3.22136e-026   
     length 0.784497   
     axis -2.0555e-014 -90 -90   XYZ
    dof rx rz
    limits (-90.0 90.0)
           (-45.0 45.0)
  end
  begin
     id 29
     name rfingers
     direction -1 -4.48823e-011 6.44272e-026   
     length 0.632482   
     axis -4.11101e-014 -90 -90   XYZ
    dof rx
    limits (0.0 90.0)
  end
  begin
     id 30
     name rthumb
     direction -0.707107 -6.34923e-011 0.707107   
     length 0.908121   
     axis -90 -45 -2.85299e-015   XYZ
    dof rx rz
    limits (-45.0 45.0)
           (-45.0 45.0)
  end
:hierarchy
  begin
    root lhipjoint rhipjoint lowerback
    lhipjoint lfemur
    lfemur ltibia
    ltibia lfoot
    lfoot ltoes
    rhipjoint rfemur
    rfemur rtibia
    rtibia rfoot
    rfoot rtoes
    lowerback upperback
    upperback thorax
    thorax lowerneck lclavicle rclavicle
    lowerneck upperneck
    upperneck head
    lclavicle lhumerus
    lhumerus lradius
    lradius lwrist
    lwrist lhand lthumb
    lhand lfingers
    rclavicle rhumerus
    rhumerus rradius
    rradius rwrist
    rwrist rhand rthumb
    rhand rfingers
  end

#!OML:ASF E:\Style6\Style6.ASF
:FULLY-SPECIFIED
:DEGREES
1506
root 0.862075 16.9396 -1.42145 0.296954 -12.5196 -2.08524
lowerback 7.51376 -0.567875 3.76483
upperback 17.7527 -1.21291 1.64256
thorax 15.4974 -0.308874 -0.32506
lowerneck 8.86397 0.58113 1.21161
upperneck -5.2763 0.374224 -7.31802
head -3.2989 0.459245 -2.67872
rclavicle -1.74931e-014 -1.59028e-015
rhumerus 44.7993 26.7408 -46.9826
rradius 34.4377
rwrist 11.0823
rhand 7.27265 1.92953
rfingers 7.12502
rthumb 32.5352 -25.1676
lclavicle -1.74931e-014 -1.59028e-015
lhumerus 42.7889 -27.716 43.0256
lradius 36.1007
lwrist -1.77005
lhand -5.05257 27.1992
lfingers 7.12502
lthumb 20.7429 56.1106
rfemur -31.4712 -0.854917 20.3875
rtibia 46.4757
rfoot -8.67736 -1.31354
rtoes -9.67634
lfemur -28.102 10.8547 -17.377
ltibia 52.1188
lfoot -16.3241 9.57858
ltoes -16.2222
1507
root 0.863314 16.946 -1.42135 0.256358 -12.4412 -1.91986
lowerback 7.45793 -0.625671 3.54778
upperback 17.7281 -1.28096 1.5748
thorax 15.4947 -0.364917 -0.286232
lowerneck 9.54726 0.568642 0.868866
upperneck -5.56226 0.314241 -7.00229
head -3.53 0.441536 -2.52094
rclavicle 1.74931e-014 2.3059e-014
rhumerus 44.9675 26.9151 -46.9336
rradius 34.3976
rwrist 11.0363
rhand 7.35707 1.89301
rfingers 7.12502
rthumb 32.6155 -25.1875
lclavicle 1.74931e-014 2.3059e-014
lhumerus 42.721 -27.7175 42.8503
lradius 36.0986
lwrist -1.6431
lhand -5.14888 27.1455
lfingers 7.12502
lthumb 20.6504 56.067
rfemur -31.4028 -0.959245 20.2023
rtibia 46.3717
rfoot -8.61948 -1.30997
rtoes -10.0316
lfemur -28.0179 10.8246 -17.5722
ltibia 51.9744
lfoot -16.2318 9.62477
ltoes -16.8864
1508
root 0.863865 16.9529 -1.42132 0.237553 -12.3793 -1.91923
lowerback 7.43821 -0.646662 3.51328
upperback 17.7433 -1.31245 1.59507
thorax 15.5271 -0.386599 -0.246301
lowerneck 8.8352 0.66382 1.32051
upperneck -5.21125 0.495186 -7.41585
head -3.26604 0.518959 -2.73736
rclavicle -1.47101e-014 -1.31198e-014
rhumerus 45.1298 26.9497 -46.7565
rradius 34.4044
rwrist 10.866
rhand 7.5863 1.9383
rfingers 7.12502
rthumb 32.8336 -25.0969
lclavicle -1.47101e-014 -1.31198e-014
lhumerus 42.8234 -27.6637 42.7292
lradius 36.0739
lwrist -1.51698
lhand -5.09706 26.9355
lfingers 7.12502
lthumb 20.7002 55.8515
rfemur -31.2955 -1.02848 20.2064
rtibia 46.2361
rfoot -8.55237 -1.37631
rtoes -10.6379
lfemur -27.9292 10.8054 -17.5749
ltibia 51.8341
lfoot -16.1087 9.60981
ltoes -17.3782
1509
root 0.863745 16.9627 -1.42102 0.231776 -12.3198 -2.02478
lowerback 7.40868 -0.670289 3.58841
upperback 17.7518 -1.35079 1.62606
thorax 15.5569 -0.397428 -0.255267
lowerneck 9.36899 0.601656 0.919604
upperneck -5.47528 0.363462 -7.11445
head -3.46368 0.464762 -2.56689
rclavicle -6.75868e-015 3.10104e-014
rhumerus 45.2993 26.9798 -46.6365
rradius 34.3096
rwrist 10.7868
rhand 7.8388 2.14791
rfingers 7.12502
rthumb 33.0737 -24.8367
lclavicle -6.75868e-015 3.10104e-014
lhumerus 42.911 -27.6607 42.5607
lradius 36.0682
lwrist -1.38283
lhand -5.12096 26.7877
lfingers 7.12502
lthumb 20.6772 55.7063
rfemur -31.1548 -1.04773 20.3179
rtibia 46.0717
rfoot -8.49925 -1.42895
rtoes -10.9763
lfemur -27.8294 10.7922 -17.4549
ltibia 51.7029
lfoot -16.0638 9.53555
ltoes -17.0945
1510
root 0.864183 16.9719 -1.42167 0.228073 -12.2447 -2.0606
lowerback 7.37515 -0.645223 3.70517
upperback 17.7809 -1.32589 1.66867
thorax 15.6194 -0.371911 -0.270077
lowerneck 8.64428 0.621016 1.17025
upperneck -5.09029 0.432015 -7.37192
head -3.18946 0.483374 -2.68461
rclavicle -3.49861e-014 -1.63003e-014
rhumerus 45.4181 26.8318 -46.4276
rradius 34.203
rwrist 10.6179
rhand 7.99036 2.16792
rfingers 7.12502
rthumb 33.2179 -24.7861
lclavicle -3.49861e-014 -1.63003e-014
lhumerus 43.1554 -27.6667 42.5966
lradius 36.0051
lwrist -1.45073
lhand -5.24296 26.7196
lfingers 7.12502
lthumb 20.56 55.6509
rfemur -31.0347 -1.09379 20.3508
rtibia 45.9037
rfoot -8.46911 -1.43763
rtoes -10.8462
lfemur -27.766 10.7395 -17.4153
ltibia 51.5853
lfoot -16.0319 9.47805
ltoes -17.0156
1511
root 0.864406 16.9789 -1.4223 0.231634 -12.1892 -2.13206
lowerback 7.33983 -0.610362 3.83378
upperback 17.7825 -1.28989 1.74006
thorax 15.6477 -0.342845 -0.258616
lowerneck 8.46782 0.56832 0.985009
upperneck -4.92962 0.358403 -7.27197
head -3.10195 0.44052 -2.60537
rclavicle -3.26007e-014 2.22639e-014
rhumerus 45.5494 26.7645 -46.0434
rradius 34.1727
rwrist 10.3048
rhand 8.01446 1.98979
rfingers 7.12502
rthumb 33.2408 -24.9593
lclavicle -3.26007e-014 2.22639e-014
lhumerus 43.3089 -27.6732 42.7916
lradius 35.9184
lwrist -1.65832
lhand -5.4059 26.4616
lfingers 7.12502
lthumb 20.4034 55.4097
rfemur -30.9173 -1.10411 20.4248
rtibia 45.7406
rfoot -8.39349 -1.52989
rtoes -11.0438
lfemur -27.7181 10.6887 -17.334
ltibia 51.4993
lfoot -16.0102 9.41395
ltoes -16.5807
1512
root 0.863816 16.9836 -1.42204 0.225684 -12.1759 -2.1637
lowerback 7.31397 -0.610513 3.81108
upperback 17.7723 -1.29482 1.77956
thorax 15.6516 -0.352529 -0.202379
lowerneck 9.03382 0.527285 0.468152
upperneck -5.23978 0.24622 -6.8478
head -3.31704 0.395316 -2.37432
rclavicle 5.56597e-015 1.98785e-015
rhumerus 45.8267 26.8638 -45.6043
rradius 34.1818
rwrist 9.90536
rhand 7.93928 1.77817
rfingers 7.12502
rthumb 33.1693 -25.1862
lclavicle 5.56597e-015 1.98785e-015
lhumerus 43.3435 -27.6496 42.7887
lradius 35.8695
lwrist -1.78983
lhand -5.4246 26.1844
lfingers 7.12502
lthumb 20.3854 55.1344
rfemur -30.8256 -1.06977 20.4536
rtibia 45.6116
rfoot -8.36658 -1.53804
rtoes -10.8841
lfemur -27.6697 10.7038 -17.2957
ltibia 51.4285
lfoot -15.9706 9.38917
ltoes -16.4585
1513
root 0.86346 16.9879 -1.42291 0.243431 -12.1605 -2.26349
lowerback 7.30398 -0.61194 3.87899
upperback 17.7636 -1.30338 1.82785
thorax 15.6479 -0.352282 -0.186154
lowerneck 8.45127 0.583007 0.901496
upperneck -4.88325 0.369011 -7.30484
head -3.08224 0.447494 -2.60045
rclavicle -5.40694e-014 1.66979e-014
rhumerus 46.0182 26.9138 -45.3083
rradius 34.1499
rwrist 9.53537
rhand 7.9655 1.7597
rfingers 7.12502
rthumb 33.1942 -25.1993
lclavicle -5.40694e-014 1.66979e-014
lhumerus 43.4441 -27.6839 42.6424
lradius 35.8625
lwrist -1.7623
lhand -5.58623 25.9495
lfingers 7.12502
lthumb 20.2301 54.916
rfemur -30.7639 -1.02065 20.5545
rtibia 45.5001
rfoot -8.37868 -1.53751
rtoes -11.0041
lfemur -27.648 10.7148 -17.1813
ltibia 51.3755
lfoot -15.9972 9.31552
ltoes -16.0566
1514
root 0.862697 16.9927 -1.42279 0.268523 -12.138 -2.29893
lowerback 7.21891 -0.619089 3.8867
upperback 17.7612 -1.31962 1.84419
thorax 15.6985 -0.359914 -0.173777
lowerneck 8.31719 0.616986 0.998175
upperneck -4.79648 0.423513 -7.43494
head -3.02573 0.473251 -2.66166
rclavicle -2.50469e-014 1.39149e-014
rhumerus 46.044 26.8348 -45.4012
rradius 34.0756
rwrist 9.43009
rhand 8.14464 1.94699
rfingers 7.12502
rthumb 33.3645 -24.9756
lclavicle -2.50469e-014 1.39149e-014
lhumerus 43.4811 -27.6897 42.5465
lradius 35.8901
lwrist -1.7532
lhand -5.82106 25.8859
lfingers 7.12502
lthumb 20.0044 54.8761
rfemur -30.7291 -0.99074 20.5858
rtibia 45.4158
rfoot -8.33329 -1.61923
rtoes -10.8658
lfemur -27.6397 10.7292 -17.1455
ltibia 51.3066
lfoot -15.9932 9.24654
ltoes -16.0566
1515
root 0.862263 16.9974 -1.42278 0.299821 -12.0987 -2.23312
lowerback 7.09193 -0.621636 3.81585
upperback 17.7511 -1.32564 1.8267
thorax 15.7644 -0.369533 -0.15605
lowerneck 8.37897 0.629054 0.94649
upperneck -4.82481 0.434181 -7.39383
head -3.04617 0.47977 -2.64016
rclavicle 2.98177e-014 -1.03368e-014
rhumerus 45.9831 26.7217 -45.6362
rradius 33.9878
rwrist 9.44105
rhand 8.291 1.99848
rfingers 7.12502
rthumb 33.5037 -24.8941
lclavicle 2.98177e-014 -1.03368e-014
lhumerus 43.4902 -27.6509 42.556
lradius 35.8567
lwrist -1.92925
lhand -6.03659 25.7352
lfingers 7.12502
lthumb 19.7972 54.747
rfemur -30.7329 -0.991715 20.5091
rtibia 45.353
rfoot -8.29158 -1.68657
rtoes -11.0756
lfemur -27.6559 10.7344 -17.2329
ltibia 51.218
lfoot -15.9246 9.22903
ltoes -16.3859
1516
root 0.862196 17.0028 -1.42164 0.29717 -12.0605 -2.1383
lowerback 7.01726 -0.627246 3.69913
upperback 17.7402 -1.33226 1.81426
thorax 15.7963 -0.387091 -0.107021
lowerneck 8.37357 0.643212 0.911842
upperneck -4.80197 0.450937 -7.38974
head -3.03629 0.488053 -2.63258
rclavicle -2.78299e-014 1.15295e-014
rhumerus 46.0536 26.7159 -45.5872
rradius 33.9227
rwrist 9.31023
rhand 8.40389 2.03834
rfingers 7.12502
rthumb 33.611 -24.8309
lclavicle -2.78299e-014 1.15295e-014
lhumerus 43.5187 -27.6285 42.5524
lradius 35.7754
lwrist -2.10563
lhand -6.19292 25.5006
lfingers 7.12502
lthumb 19.6469 54.5278
rfemur -30.7199 -1.00047 20.3992
rtibia 45.3211
rfoot -8.30344 -1.69484
rtoes -10.9091
lfemur -27.6174 10.692 -17.3439
ltibia 51.105
lfoot -15.8386 9.26975
ltoes -16.5718
1517
root 0.862886 17.0064 -1.42058 0.27717 -12.0141 -2.03925
lowerback 6.96757 -0.609051 3.64015
upperback 17.718 -1.30652 1.81372
thorax 15.7986 -0.382166 -0.0741135
lowerneck 8.498 0.611136 0.78997
upperneck -4.86347 0.392071 -7.33697
head -3.08312 0.46288 -2.59238
rclavicle -1.31198e-014 8.34896e-015
rhumerus 46.0124 26.6248 -45.5622
rradius 33.8501
rwrist 9.24132
rhand 8.56417 1.9996
rfingers 7.12502
rthumb 33.7633 -24.8364
lclavicle -1.31198e-014 8.34896e-015
lhumerus 43.6409 -27.7278 42.51
lradius 35.7492
lwrist -2.15747
lhand -6.32724 25.3947
lfingers 7.12502
lthumb 19.5178 54.4351
rfemur -30.7121 -1.02826 20.2844
rtibia 45.3245
rfoot -8.33305 -1.70681
rtoes -10.8636
lfemur -27.5556 10.6561 -17.4602
ltibia 50.9889
lfoot -15.7652 9.28416
ltoes -16.5718
1518
root 0.863273 17.0092 -1.4195 0.270439 -11.9451 -1.90867
lowerback 6.87934 -0.561323 3.57916
upperback 17.6846 -1.24369 1.83438
thorax 15.8121 -0.36118 -0.0141547
lowerneck 8.60071 0.552149 0.594815
upperneck -4.83178 0.297236 -7.24194
head -3.09461 0.417364 -2.51987
rclavicle 1.11319e-014 -2.78299e-014
rhumerus 45.8593 26.4553 -45.5888
rradius 33.6939
rwrist 9.21898
rhand 8.55784 2.07451
rfingers 7.12502
rthumb 33.7573 -24.7628
lclavicle 1.11319e-014 -2.78299e-014
lhumerus 43.8677 -27.9237 42.4539
lradius 35.7089
lwrist -2.15361
lhand -6.49695 25.2551
lfingers 7.12502
lthumb 19.3546 54.3119
rfemur -30.7293 -1.08769 20.1346
rtibia 45.3447
rfoot -8.35974 -1.71928
rtoes -10.8916
lfemur -27.5208 10.6197 -17.6196
ltibia 50.8856
lfoot -15.6826 9.29646
ltoes -16.9218
1519
root 0.862299 17.0103 -1.41991 0.261639 -11.8766 -1.74193
lowerback 6.7705 -0.517316 3.43684
upperback 17.6794 -1.18303 1.82359
thorax 15.8752 -0.349029 0.0554046
lowerneck 8.57362 0.503859 0.543742
upperneck -4.75405 0.235337 -7.19093
head -3.06478 0.38359 -2.48772
rclavicle -1.07344e-014 0
rhumerus 45.7676 26.2713 -45.6731
rradius 33.5107
rwrist 9.26214
rhand 8.54141 2.20159
rfingers 7.12502
rthumb 33.7416 -24.6392
lclavicle -1.07344e-014 0
lhumerus 44.0807 -28.0387 42.4028
lradius 35.6274
lwrist -2.25321
lhand -6.53304 25.0895
lfingers 7.12502
lthumb 19.3199 54.1497
rfemur -30.7612 -1.10947 19.9503
rtibia 45.3631
rfoot -8.35328 -1.7803
rtoes -11.3849
lfemur -27.5207 10.5731 -17.81
ltibia 50.8108
lfoot -15.657 9.27902
ltoes -16.9676
1520
root 0.86139 17.0107 -1.42029 0.275019 -11.8223 -1.73774
lowerback 6.70833 -0.494769 3.42416
upperback 17.6701 -1.15563 1.84087
thorax 15.9034 -0.338494 0.0832856
lowerneck 8.5352 0.468913 0.566729
upperneck -4.72637 0.195091 -7.1688
head -3.04963 0.361058 -2.48114
rclavicle -1.35174e-014 1.39149e-014
rhumerus 45.7582 26.157 -45.6907
rradius 33.3385
rwrist 9.34578
rhand 8.51317 2.30823
rfingers 7.12502
rthumb 33.7148 -24.5384
lclavicle -1.35174e-014 1.39149e-014
lhumerus 44.1361 -28.0249 42.6286
lradius 35.4982
lwrist -2.58606
lhand -6.51544 24.9384
lfingers 7.12502
lthumb 19.3368 53.997
rfemur -30.7678 -1.10686 19.9427
rtibia 45.3578
rfoot -8.35608 -1.85821
rtoes -11.5147
lfemur -27.5375 10.5484 -17.8126
ltibia 50.7648
lfoot -15.6305 9.21616
ltoes -16.7449
